<?xml version="1.0" standalone="no"?><!DOCTYPE svg PUBLIC "-//W3C//DTD SVG 1.1//EN" "http://www.w3.org/Graphics/SVG/1.1/DTD/svg11.dtd"><svg t="1680619028025" class="icon" viewBox="0 0 1024 1024" version="1.1" xmlns="http://www.w3.org/2000/svg" p-id="10367" xmlns:xlink="http://www.w3.org/1999/xlink" width="200" height="200"><path d="M350.208 498.176h-2.56c-16.896-1.536-29.184-16.384-28.16-33.28C332.288 313.344 406.528 225.28 465.92 177.664c65.024-51.712 126.976-67.072 129.536-68.096 16.384-4.096 33.28 6.144 37.376 22.528 4.096 16.384-6.144 33.28-22.528 37.376-8.704 2.048-208.384 55.808-229.376 300.544-1.536 15.872-14.848 28.16-30.72 28.16z" fill="#FF7879" p-id="10368"></path><path d="M712.192 569.344c-3.072 0-6.144-0.512-9.216-1.536-16.384-5.12-25.088-22.528-19.968-38.4 75.264-236.032-94.72-364.544-96.256-365.568-13.824-10.24-16.384-29.184-6.656-43.008 10.24-13.824 29.184-16.384 43.008-6.656 2.048 1.536 53.248 39.936 93.696 112.64 36.864 67.072 71.168 177.152 25.088 321.536-4.608 12.288-16.384 20.992-29.696 20.992z" fill="#FF7879" p-id="10369"></path><path d="M880.128 621.056c-2.048 0-4.096 0-5.632-0.512L170.496 484.864c-8.192-1.536-14.848-6.144-19.456-12.8-4.608-6.656-6.144-14.848-4.608-23.04l7.168-36.352C173.056 310.784 231.424 222.208 317.44 163.84c86.016-58.368 189.44-79.36 291.84-59.904 210.432 40.448 349.184 245.248 308.224 455.68l-7.168 36.352c-3.072 14.848-15.872 25.088-30.208 25.088zM211.968 430.08l643.584 123.904 1.024-6.144c34.304-177.664-82.432-349.696-259.584-384-177.664-34.304-349.696 82.432-384 259.584l-1.024 6.656zM154.624 926.72c-12.288 0-24.064-7.168-28.672-19.456-6.144-15.872 1.536-33.792 17.408-39.936l131.584-51.712c25.6-10.24 53.76-11.264 80.384-3.072l145.92 45.568c11.264 3.584 23.552 3.584 34.816 0l148.992-46.08c26.112-8.192 54.784-6.656 80.384 3.584l128 51.712c15.872 6.144 23.552 24.064 16.896 39.936-6.144 15.872-24.064 23.552-39.936 16.896l-128-51.712c-12.288-5.12-26.624-5.632-39.424-1.536l-148.992 46.08c-23.552 7.168-48.128 7.168-71.168 0l-145.92-45.568c-12.8-4.096-26.624-3.584-39.424 1.536l-131.584 51.712c-3.584 1.536-7.68 2.048-11.264 2.048z" fill="#4B81EE" p-id="10370"></path><path d="M155.648 697.344c0-68.096 54.784-122.88 122.88-122.88s122.88 54.784 122.88 122.88h-245.76z" fill="#DBE6FC" p-id="10371"></path><path d="M401.408 728.064h-245.76c-16.896 0-30.72-13.824-30.72-30.72 0-84.48 69.12-153.6 153.6-153.6s153.6 69.12 153.6 153.6c0 16.896-13.824 30.72-30.72 30.72z m-209.92-61.44h173.568c-12.8-35.84-47.104-61.44-87.04-61.44-39.936 0-73.728 25.6-86.528 61.44zM469.504 870.912c-2.048 0-4.096 0-6.144-0.512-16.896-3.072-27.648-19.456-24.064-35.84l132.608-678.4c3.072-16.896 19.456-27.648 35.84-24.064 16.896 3.072 27.648 19.456 24.064 35.84L499.712 846.336c-3.072 14.336-15.872 24.576-30.208 24.576z" fill="#4B81EE" p-id="10372"></path></svg>